<svg width="160" height="160" viewBox="0 0 160 160" fill="none" xmlns="http://www.w3.org/2000/svg">
  <rect x="4" y="4" width="152" height="152" rx="36" fill="#070707" stroke="#321018" stroke-width="2"/>
  <path d="M32 101L42 55L65 82L80 40L95 82L118 55L128 101H32Z" fill="url(#red)"/>
  <path d="M32 101H128L120 119H40L32 101Z" fill="url(#red2)"/>
  <path d="M42 55L65 82L80 40L95 82L118 55" stroke="#ffd0d8" stroke-width="4" stroke-linejoin="round" opacity="0.72"/>
  <circle cx="42" cy="55" r="7" fill="#ff304f"/>
  <circle cx="80" cy="40" r="7" fill="#ff304f"/>
  <circle cx="118" cy="55" r="7" fill="#ff304f"/>
  <path d="M46 112H114" stroke="#ffd0d8" stroke-width="4" stroke-linecap="round" opacity="0.7"/>
  <defs>
    <linearGradient id="red" x1="34" y1="42" x2="126" y2="103" gradientUnits="userSpaceOnUse">
      <stop stop-color="#5a0010"/>
      <stop offset="0.50" stop-color="#ff304f"/>
      <stop offset="1" stop-color="#b00020"/>
    </linearGradient>
    <linearGradient id="red2" x1="32" y1="101" x2="128" y2="119" gradientUnits="userSpaceOnUse">
      <stop stop-color="#5a0010"/>
      <stop offset="0.52" stop-color="#b00020"/>
      <stop offset="1" stop-color="#5a0010"/>
    </linearGradient>
  </defs>
</svg>
